<svg width="888" height="773" viewBox="0 0 888 773" fill="none" xmlns="http://www.w3.org/2000/svg">
<g id="undraw_happy_music_g6wc 1" clip-path="url(#clip0_2_11)">
<path id="Vector" d="M887.772 763.25L252.263 772.831L0 728.121H393.817L887.772 763.25Z" fill="#E6E6E6"/>
<path id="Vector_2" d="M731.66 357.32C787.806 357.32 833.32 311.806 833.32 255.66C833.32 199.515 787.806 154 731.66 154C675.515 154 630 199.515 630 255.66C630 311.806 675.515 357.32 731.66 357.32Z" fill="#FF6584"/>
<path id="Vector_3" d="M179.84 733.435C179.84 733.435 181.327 702.276 211.812 705.898Z" fill="#3F3D56"/>
<path id="Vector_4" d="M171.227 703.784C179.653 703.784 186.484 696.953 186.484 688.526C186.484 680.1 179.653 673.269 171.227 673.269C162.801 673.269 155.97 680.1 155.97 688.526C155.97 696.953 162.801 703.784 171.227 703.784Z" fill="#6C63FF"/>
<path id="Vector_5" d="M173.051 714.218H168.744V744.365H173.051V714.218Z" fill="#3F3D56"/>
<path id="Vector_6" d="M682.287 738.757C682.287 738.757 683.774 707.599 714.258 711.22Z" fill="#3F3D56"/>
<path id="Vector_7" d="M673.673 709.106C682.1 709.106 688.93 702.275 688.93 693.849C688.93 685.423 682.1 678.592 673.673 678.592C665.247 678.592 658.416 685.423 658.416 693.849C658.416 702.275 665.247 709.106 673.673 709.106Z" fill="#6C63FF"/>
<path id="Vector_8" d="M675.497 719.541H671.191V749.688H675.497V719.541Z" fill="#3F3D56"/>
<path id="Vector_9" d="M755.738 744.08C755.738 744.08 757.225 712.921 787.709 716.543Z" fill="#3F3D56"/>
<path id="Vector_10" d="M747.124 714.429C755.55 714.429 762.381 707.598 762.381 699.171C762.381 690.745 755.55 683.914 747.124 683.914C738.698 683.914 731.867 690.745 731.867 699.171C731.867 707.598 738.698 714.429 747.124 714.429Z" fill="#6C63FF"/>
<path id="Vector_11" d="M748.948 724.863H744.642V755.01H748.948V724.863Z" fill="#3F3D56"/>
<path id="Vector_12" d="M303 730.83C303 730.83 304.487 699.671 334.971 703.293Z" fill="#3F3D56"/>
<path id="Vector_13" d="M290.257 703.514C298.683 703.514 305.514 696.683 305.514 688.257C305.514 679.831 298.683 673 290.257 673C281.831 673 275 679.831 275 688.257C275 696.683 281.831 703.514 290.257 703.514Z" fill="#6C63FF"/>
<path id="Vector_14" d="M294.307 716H290V746.147H294.307V716Z" fill="#3F3D56"/>
<path id="Vector_15" d="M442.277 669.71C534.082 669.71 608.505 595.287 608.505 503.482C608.505 411.677 534.082 337.254 442.277 337.254C350.472 337.254 276.049 411.677 276.049 503.482C276.049 595.287 350.472 669.71 442.277 669.71Z" fill="#3F3D56"/>
<path id="Vector_16" d="M337.626 516.826C341.754 511.883 346.918 507.908 352.751 505.179C358.584 502.451 364.946 501.037 371.385 501.037C377.825 501.037 384.187 502.451 390.02 505.179C395.853 507.908 401.017 511.883 405.145 516.826C412.209 510.082 417.092 501.377 419.163 491.833C421.235 482.289 420.401 472.343 416.769 463.278C413.136 454.212 406.872 446.442 398.783 440.969C390.694 435.496 381.152 432.571 371.385 432.571C361.619 432.571 352.077 435.496 343.988 440.969C335.899 446.442 329.635 454.212 326.002 463.278C322.37 472.343 321.536 482.289 323.607 491.833C325.679 501.377 330.562 510.082 337.626 516.826V516.826Z" fill="white"/>
<path id="Vector_17" d="M469.631 516.826C473.759 511.883 478.922 507.908 484.756 505.179C490.589 502.451 496.95 501.037 503.39 501.037C509.83 501.037 516.191 502.451 522.025 505.179C527.858 507.908 533.021 511.883 537.15 516.826C544.214 510.082 549.096 501.377 551.168 491.833C553.24 482.289 552.406 472.343 548.773 463.278C545.141 454.212 538.877 446.442 530.788 440.969C522.699 435.496 513.157 432.571 503.39 432.571C493.624 432.571 484.081 435.496 475.993 440.969C467.904 446.442 461.64 454.212 458.007 463.278C454.375 472.343 453.541 482.289 455.612 491.833C457.684 501.377 462.567 510.082 469.631 516.826Z" fill="white"/>
<g id="Eyes">
<path id="Vector_18" d="M354.707 481.632C363.996 481.632 371.525 474.102 371.525 464.814C371.525 455.526 363.996 447.996 354.707 447.996C345.419 447.996 337.889 455.526 337.889 464.814C337.889 474.102 345.419 481.632 354.707 481.632Z" fill="#3F3D56"/>
<path id="Vector_19" d="M486.707 481.632C495.996 481.632 503.525 474.102 503.525 464.814C503.525 455.526 495.996 447.996 486.707 447.996C477.419 447.996 469.889 455.526 469.889 464.814C469.889 474.102 477.419 481.632 486.707 481.632Z" fill="#3F3D56"/>
</g>
<g id="check">
<path id="Vector_20" d="M322.495 564.595C333.295 564.595 342.051 555.84 342.051 545.039C342.051 534.238 333.295 525.483 322.495 525.483C311.694 525.483 302.939 534.238 302.939 545.039C302.939 555.84 311.694 564.595 322.495 564.595Z" fill="#FF6584"/>
<path id="Vector_21" d="M547.392 564.595C558.192 564.595 566.948 555.84 566.948 545.039C566.948 534.238 558.192 525.483 547.392 525.483C536.591 525.483 527.836 534.238 527.836 545.039C527.836 555.84 536.591 564.595 547.392 564.595Z" fill="#FF6584"/>
</g>
<path id="Vector_22" d="M434.943 505.926L420.276 569.484L444.721 545.039L434.943 505.926Z" fill="#FF6584"/>
<path id="Vector_23" d="M510.307 750.38L493.655 736.404L494.043 750.38H488.871L488.458 735.602L465.975 750.38H456.563L488.29 729.526L487.061 685.737L486.143 652.666L491.302 652.524L492.233 685.737L493.461 729.487L518.348 750.38H510.307Z" fill="#3F3D56"/>
<path id="Vector_24" d="M432.076 750.38L415.424 736.404L415.812 750.38H410.654L410.24 735.602L387.757 750.38H378.345L410.059 729.526L408.831 685.737L407.913 652.666L413.084 652.524L414.015 685.737L415.23 729.487L440.118 750.38H432.076Z" fill="#3F3D56"/>
<path id="Vector_25" d="M444.721 325.031C440.16 325.031 436.137 328.574 433.447 334.016C431.075 325.833 426.094 320.142 420.276 320.142C419.881 320.181 419.488 320.247 419.102 320.339C416.866 311.602 411.668 305.475 405.609 305.475C397.508 305.475 390.942 316.419 390.942 329.92C390.942 343.421 397.508 354.365 405.609 354.365C406.004 354.326 406.397 354.26 406.783 354.168C409.019 362.905 414.217 369.033 420.276 369.033C424.837 369.033 428.861 365.49 431.551 360.048C433.922 368.231 438.904 373.922 444.721 373.922C452.822 373.922 459.389 362.977 459.389 349.476C459.389 335.976 452.822 325.031 444.721 325.031Z" fill="#3F3D56"/>
<path id="Vector_26" d="M286.25 566.475C279.83 566.475 273.472 565.21 267.541 562.754C261.609 560.297 256.219 556.695 251.679 552.155C247.14 547.615 243.538 542.226 241.081 536.294C238.624 530.362 237.36 524.005 237.36 517.584V493.139C237.36 480.172 242.511 467.737 251.679 458.568C260.848 449.399 273.284 444.248 286.25 444.248V444.248V566.475Z" fill="#6C63FF"/>
<path id="Vector_27" d="M598.303 444.248C604.724 444.248 611.081 445.513 617.013 447.97C622.945 450.427 628.334 454.028 632.874 458.568C637.414 463.108 641.016 468.498 643.473 474.429C645.93 480.361 647.194 486.719 647.194 493.139V517.584C647.194 524.005 645.93 530.362 643.473 536.294C641.016 542.226 637.414 547.615 632.874 552.155C628.334 556.695 622.945 560.296 617.013 562.753C611.081 565.21 604.724 566.475 598.304 566.475V566.475V444.248H598.303Z" fill="#6C63FF"/>
<path id="Vector_28" d="M623.923 496.98H616.166C616.166 398.603 536.13 318.567 437.752 318.567C339.375 318.567 259.338 398.603 259.338 496.98H251.581C251.581 394.325 335.097 310.81 437.752 310.81C540.408 310.81 623.923 394.326 623.923 496.98Z" fill="#6C63FF"/>
<g id="Music">
<path id="Vector_29" d="M171.547 347.473L171.549 347.47L167.904 345.953L152.528 339.452L147.016 337.123L146.593 338.19L139.189 356.884L160.026 365.704L160.136 365.803L158.731 369.114C158.539 369.416 158.375 369.736 158.241 370.069C157.258 372.553 159.116 375.023 160.872 375.718C162.628 376.414 164.849 374.965 165.833 372.481C166.803 370.031 165.855 366.919 164.143 366.167L164.145 366.164L160.501 364.647L148.034 359.8L155.157 341.815L154.101 341.397L146.975 359.389L145.434 358.79L152.588 340.728L152.776 340.807L167.43 347.01L167.539 347.109L166.135 350.42C165.943 350.722 165.779 351.042 165.645 351.375C164.662 353.859 166.519 356.329 168.276 357.024C170.032 357.72 172.253 356.271 173.237 353.787C174.207 351.337 173.259 348.225 171.547 347.473Z" fill="#3F3D56"/>
<path id="Vector_30" d="M237.269 417.317C229.705 412.992 231.219 403.502 231.219 403.502C231.028 397.336 225.935 398.209 225.935 398.209L224.081 398.632C223.22 398.232 222.271 398.057 221.324 398.122L218.504 398.597C224.925 400.106 224.398 405.477 224.398 405.477L225.297 411.758L208.472 404.971L210.404 400.416C210.671 399.995 210.898 399.551 211.084 399.088C212.45 395.639 209.87 392.208 207.431 391.242C204.992 390.276 201.907 392.289 200.541 395.738C199.193 399.141 200.51 403.463 202.887 404.507L202.885 404.512L207.947 406.619L207.984 406.5L237.269 417.317ZM228.725 406.281L229.264 412.293C227.359 409.619 226.464 406.357 226.738 403.086C226.694 401.922 226.301 400.799 225.611 399.861C226.672 400.54 227.524 401.499 228.073 402.632C228.622 403.765 228.848 405.028 228.725 406.281V406.281Z" fill="#3F3D56"/>
<path id="Vector_31" d="M233.659 297.822L233.661 297.818L228.599 295.71L207.445 287.486L212.784 282.736C213.828 281.344 215.371 280.409 217.089 280.128C218.806 279.846 220.566 280.24 222.001 281.226L220.344 278.764C220.344 278.764 217.229 274.64 212.869 279.003C212.869 279.003 207.474 286.956 199 284.929L227.94 297.178L228.092 297.316L226.142 301.914C225.875 302.334 225.647 302.779 225.462 303.241C224.095 306.69 226.676 310.121 229.115 311.087C231.554 312.054 234.639 310.04 236.005 306.591C237.352 303.189 236.036 298.866 233.659 297.822Z" fill="#3F3D56"/>
<path id="Vector_32" d="M155.092 262.834L153.142 267.432C152.875 267.853 152.647 268.297 152.462 268.759C151.095 272.209 153.676 275.64 156.115 276.606C158.554 277.572 161.639 275.559 163.005 272.109C164.353 268.707 163.036 264.385 160.659 263.34L160.661 263.336L155.599 261.228L138.284 254.497L148.177 229.518L146.711 228.937L136.814 253.926L134.673 253.094L144.609 228.007L144.87 228.118L165.223 236.732L165.375 236.87L163.425 241.468C163.158 241.889 162.93 242.333 162.745 242.795C161.379 246.245 163.959 249.676 166.398 250.642C168.837 251.608 171.922 249.595 173.288 246.145C174.636 242.743 173.319 238.421 170.942 237.376L170.944 237.372L165.882 235.264L145.198 226.52L145.197 226.52L144.526 226.236L136.871 223L126 250.447L154.94 262.696L155.092 262.834Z" fill="#3F3D56"/>
</g>
</g>
<defs>
<clipPath id="clip0_2_11">
<rect width="887.772" height="772.831" fill="white"/>
</clipPath>
</defs>
</svg>
